<svg width="20" height="20" viewBox="0 0 20 20" fill="none" xmlns="http://www.w3.org/2000/svg">
<path d="M9.99996 0C7.62545 9.79152e-05 5.32845 0.840392 3.51997 2.37053C1.71148 3.90066 0.509525 6.02079 0.12916 8.35156C-0.251206 10.6823 0.214844 13.0716 1.44392 15.092C2.67299 17.1123 4.58488 18.6318 6.8375 19.3786C7.3375 19.4656 7.52499 19.1673 7.52499 18.9063C7.52499 18.6701 7.51248 17.887 7.51248 17.0542C4.99999 17.5141 4.35 16.4451 4.15 15.8858C3.92808 15.3418 3.57628 14.8597 3.12501 14.4811C2.77501 14.2947 2.27501 13.8348 3.1125 13.8224C3.43228 13.8569 3.73899 13.9675 4.00663 14.1449C4.27427 14.3224 4.49496 14.5613 4.64999 14.8416C4.78676 15.0859 4.97067 15.301 5.19118 15.4745C5.41169 15.6481 5.66446 15.7766 5.93502 15.8528C6.20557 15.929 6.48859 15.9514 6.76786 15.9187C7.04712 15.8859 7.31715 15.7987 7.56245 15.662C7.60574 15.1565 7.83231 14.6838 8.19997 14.332C5.97499 14.0834 3.65 13.2257 3.65 9.42209C3.63595 8.43379 4.00268 7.47759 4.67499 6.74961C4.36928 5.89065 4.40505 4.94801 4.77499 4.11441C4.77499 4.11441 5.61246 3.85337 7.52497 5.13369C9.16125 4.68617 10.8887 4.68617 12.5249 5.13369C14.4374 3.84095 15.2749 4.11441 15.2749 4.11441C15.6449 4.948 15.6807 5.89066 15.3749 6.74961C16.0493 7.47635 16.4163 8.43338 16.3999 9.42209C16.3999 13.2381 14.0624 14.0834 11.8374 14.332C12.0761 14.5725 12.2599 14.8613 12.3764 15.1788C12.4928 15.4962 12.5392 15.8348 12.5124 16.1717C12.5124 17.5017 12.4999 18.5707 12.4999 18.9063C12.4999 19.1673 12.6874 19.4781 13.1874 19.3786C15.4361 18.6257 17.3425 17.1027 18.5663 15.0813C19.7901 13.0599 20.2518 10.6719 19.8688 8.34336C19.4858 6.01485 18.2831 3.89747 16.4754 2.3692C14.6677 0.840925 12.3726 0.00122801 9.99996 0V0Z" fill="black"/>
</svg>
